<?xml version="1.0" encoding="iso-8859-1"?>
<!-- Uploaded to: SVG Repo, www.svgrepo.com, Generator: SVG Repo Mixer Tools -->
<svg fill="#000000" height="800px" width="800px" version="1.1" id="Layer_1" xmlns="http://www.w3.org/2000/svg" xmlns:xlink="http://www.w3.org/1999/xlink" 
	 viewBox="0 0 512 512" xml:space="preserve">
<g>
	<g>
		<path d="M255.986,0c-39.751,0-76.652,25.178-105.508,71.442h211.015C332.639,25.178,295.738,0,255.986,0z"/>
	</g>
</g>
<g>
	<g>
		<g>
			<polygon points="183.443,107.163 183.443,107.163 183.443,107.163 			"/>
			<path d="M416.65,288.55c-9.179-8.771-18.545-17.553-27.654-26.085c-49.283-46.153-100.152-93.815-137.278-155.303h-68.275
				c17.556,79.472,70.879,126.529,126.965,176.014c35.496,31.318,71.91,63.464,99.024,104.552
				c4.801-28.763,7.298-59.073,7.298-90.054C416.73,294.625,416.698,291.585,416.65,288.55z"/>
		</g>
	</g>
</g>
<g>
	<g>
		<path d="M380.286,107.163h-86.151c33.008,48.429,75.095,87.856,119.27,129.224C408.179,188.857,396.894,144.6,380.286,107.163z"/>
	</g>
</g>
<g>
	<g>
		<path d="M191.23,352.944c-27.313-21.28-55.559-43.284-77.722-70.944c-6.343-7.916-11.955-16.03-16.853-24.371
			c-0.83,11.764-1.295,23.69-1.386,35.728c0.575,56.187,30.425,80.99,64.959,109.642c31.23,25.912,65.999,54.804,75.414,109.001
			h61.917C295.115,433.89,244.621,394.54,191.23,352.944z"/>
	</g>
</g>
<g>
	<g>
		<path d="M137.419,430.488c-10.751-8.921-21.917-18.201-32.332-28.734c7.289,37.057,18.502,71.194,33.22,100.419l4.949,9.827
			h55.975C190.628,474.655,165.579,453.853,137.419,430.488z"/>
	</g>
</g>
<g>
	<g>
		<path d="M286.775,309.962c-59.911-52.86-121.674-107.368-139.814-202.8h-15.275c-9.849,22.204-17.832,46.805-23.787,73.067
			c7.78,68.534,55.186,105.504,105.284,144.535c28.754,22.401,58.486,45.564,81.138,75.314
			c25.112,32.981,37.883,69.65,38.974,111.921h35.421l4.949-9.827c9.482-18.827,17.507-39.695,23.968-62.066
			C373.879,386.833,331.562,349.477,286.775,309.962z"/>
	</g>
</g>
</svg>