<?xml version="1.0" encoding="iso-8859-1"?>
<!-- Uploaded to: SVG Repo, www.svgrepo.com, Generator: SVG Repo Mixer Tools -->
<svg fill="#000000" version="1.1" id="Layer_1" xmlns="http://www.w3.org/2000/svg" xmlns:xlink="http://www.w3.org/1999/xlink" 
	 viewBox="0 0 512.001 512.001" xml:space="preserve">
<g>
	<g>
		<path d="M459.635,203.636c-4.651,0-8.979,1.386-12.618,3.747c-2.114-20.844-7.581-40.711-15.844-59.058
			c0.396,0.021,0.792,0.04,1.19,0.04c4.074,0,8.094-1.078,11.644-3.127c11.101-6.423,14.915-20.682,8.503-31.786
			c-4.144-7.176-11.867-11.634-20.156-11.634c-4.074,0-8.094,1.078-11.628,3.117c-3.971,2.291-7.102,5.627-9.121,9.628
			c-12.031-16.616-26.651-31.235-43.269-43.265c3.967-2.013,7.354-5.147,9.648-9.119c6.403-11.114,2.576-25.371-8.526-31.779
			c-3.534-2.04-7.554-3.119-11.629-3.119c-8.287,0-16.013,4.458-20.161,11.638c-2.331,4.035-3.294,8.485-3.064,12.827
			c-18.351-8.266-38.225-13.736-59.076-15.85c2.362-3.641,3.749-7.97,3.749-12.623C279.277,10.44,268.837,0,256.004,0
			c-12.828,0-23.268,10.438-23.273,23.273c0,4.653,1.387,8.982,3.748,12.623c-20.843,2.114-40.71,7.58-59.056,15.842
			c0.235-4.446-0.803-8.872-3.081-12.817c-4.144-7.18-11.869-11.64-20.161-11.64c-4.075,0-8.097,1.079-11.634,3.121
			c-11.103,6.413-14.926,20.67-8.516,31.789c2.289,3.966,5.674,7.095,9.641,9.108c-16.625,12.034-31.251,26.66-43.283,43.283
			c-1.97-3.903-5.044-7.301-9.104-9.644c-3.534-2.04-7.557-3.12-11.632-3.12c-8.292,0-16.017,4.46-20.161,11.641
			c-6.41,11.107-2.591,25.366,8.519,31.788c3.535,2.041,7.557,3.12,11.633,3.12c0.398,0,0.794-0.02,1.188-0.04
			c-8.264,18.347-13.73,38.215-15.844,59.059c-3.64-2.362-7.969-3.748-12.622-3.748c-12.833,0-23.273,10.44-23.273,23.279
			c0.005,12.822,10.44,23.26,23.263,23.267h0.009c4.55,0,8.894-1.309,12.623-3.727c2.117,20.836,7.582,40.697,15.842,59.038
			c-0.394-0.021-0.79-0.04-1.188-0.04c-4.076,0-8.099,1.079-11.629,3.119c-5.384,3.108-9.236,8.126-10.845,14.13
			c-1.609,6.007-0.783,12.281,2.327,17.666c4.145,7.175,11.869,11.632,20.158,11.632c4.07,0,8.087-1.075,11.634-3.12
			c4.058-2.344,7.131-5.74,9.1-9.641c12.032,16.622,26.657,31.248,43.279,43.28c-3.967,2.013-7.351,5.143-9.64,9.109
			c-6.414,11.115-2.59,25.375,8.525,31.791c3.533,2.039,7.552,3.116,11.625,3.116c8.286,0,16.009-4.456,20.16-11.634
			c0.334-0.578,0.628-1.172,0.91-1.769l-11.066,29.049h37.357l10.778-28.292c7.88,1.841,15.945,3.199,24.163,4.032
			c-2.361,3.641-3.748,7.972-3.748,12.627c0.005,12.83,10.444,23.267,23.273,23.266c0,0,0.004,0,0.005,0h0.002
			c12.82-0.005,23.256-10.439,23.266-23.273c0-4.55-1.309-8.893-3.727-12.622c8.211-0.833,16.268-2.19,24.142-4.03l10.776,28.292
			h37.355l-11.081-29.091c0.285,0.611,0.585,1.22,0.929,1.815c4.147,7.173,11.87,11.628,20.155,11.628
			c4.076,0,8.099-1.08,11.638-3.123c11.1-6.414,14.921-20.67,8.513-31.782c-2.289-3.967-5.673-7.098-9.64-9.111
			c16.623-12.033,31.248-26.66,43.28-43.283c1.971,3.904,5.049,7.304,9.112,9.651c3.532,2.035,7.55,3.112,11.62,3.112
			c8.293,0,16.02-4.46,20.162-11.642c6.409-11.108,2.589-25.365-8.515-31.782c-3.535-2.042-7.559-3.123-11.636-3.123
			c-0.398,0-0.792,0.02-1.188,0.04c8.264-18.347,13.73-38.215,15.843-59.059c3.64,2.361,7.966,3.748,12.617,3.749h0.02
			c12.828-0.012,23.261-10.455,23.256-23.275C482.91,214.081,472.471,203.641,459.635,203.636z M256.003,384.001
			c-10.651,0-21.057-1.071-31.119-3.101l31.119-81.687l31.119,81.687C277.059,382.931,266.654,384.001,256.003,384.001z
			 M320.396,370.188L276.56,255.117c8.697-6.349,14.351-16.616,14.351-28.208c0-19.279-15.63-34.909-34.909-34.909
			s-34.909,15.63-34.909,34.909c0,11.592,5.654,21.859,14.351,28.208l-43.837,115.071c-54.599-24.635-92.696-79.59-92.696-143.277
			c0-86.62,70.471-157.091,157.091-157.091S413.093,140.29,413.093,226.91C413.093,290.597,374.996,345.552,320.396,370.188z"/>
	</g>
</g>
<g>
	<g>
		<rect x="93.093" y="477.092" width="325.818" height="34.909"/>
	</g>
</g>
</svg>